<svg data-v-423bf9ae="" xmlns="http://www.w3.org/2000/svg" viewBox="0 0 421 90" class="iconLeftSlogan"><!----><!----><!----><g data-v-423bf9ae="" id="99bafcbb-1d41-4d17-b052-7d8f47702029" fill="white" transform="matrix(4.995836707455764,0,0,4.995836707455764,104.95421030134054,-38.31806697366349)"><path d="M6.43 17.02Q5.92 17.22 5.38 17.30Q4.83 17.39 4.09 17.39L4.09 17.39Q2.79 17.39 2.14 17.00Q1.50 16.60 1.25 15.65Q1.01 14.70 1.01 12.81L1.01 12.81Q1.01 10.91 1.26 9.95Q1.51 8.99 2.18 8.60Q2.86 8.22 4.20 8.22L4.20 8.22Q4.65 8.22 5.24 8.29Q5.82 8.37 6.20 8.50L6.20 8.50L6.06 9.44Q5.54 9.32 4.87 9.25Q4.20 9.18 3.79 9.18L3.79 9.18Q3.19 9.18 2.86 9.26Q2.53 9.34 2.37 9.57Q2.20 9.80 2.20 10.26L2.20 10.26L2.20 16.24Q2.93 16.46 3.98 16.46L3.98 16.46Q5.04 16.46 6.30 16.11L6.30 16.11L6.43 17.02ZM10.61 17.30Q9.37 17.30 8.76 17.02Q8.16 16.73 7.94 15.98Q7.71 15.23 7.71 13.68L7.71 13.68Q7.71 12.12 7.94 11.38Q8.16 10.63 8.76 10.34Q9.37 10.05 10.61 10.05L10.61 10.05Q11.87 10.05 12.47 10.33Q13.08 10.61 13.30 11.36Q13.52 12.11 13.52 13.68L13.52 13.68Q13.52 15.23 13.30 15.98Q13.08 16.73 12.47 17.02Q11.86 17.30 10.61 17.30L10.61 17.30ZM8.86 16.35L11.68 16.35Q12.10 16.35 12.24 16.28Q12.38 16.21 12.38 16.00L12.38 16.00L12.38 11.00L9.56 11.00Q9.14 11.00 9.00 11.07Q8.86 11.14 8.86 11.35L8.86 11.35L8.86 16.35ZM19.85 7.83L20.97 7.67L20.97 17.18L20.48 17.18L20.22 16.63Q19.95 17.07 19.43 17.23Q18.91 17.39 17.96 17.39L17.96 17.39Q16.83 17.39 16.30 17.12Q15.76 16.84 15.57 16.08Q15.37 15.32 15.37 13.68L15.37 13.68Q15.37 12.14 15.56 11.39Q15.75 10.64 16.24 10.35Q16.73 10.05 17.74 10.05L17.74 10.05Q18.54 10.05 19.04 10.14Q19.54 10.22 19.85 10.42L19.85 10.42L19.85 7.83ZM19.85 16.09L19.85 11.00L17.19 11.00Q16.80 11.00 16.67 11.07Q16.53 11.14 16.53 11.35L16.53 11.35L16.53 16.44L19.18 16.44Q19.59 16.44 19.72 16.37Q19.85 16.30 19.85 16.09L19.85 16.09ZM26.03 16.38Q26.60 16.38 27.13 16.31Q27.66 16.24 28.43 16.06L28.43 16.06L28.59 16.90Q28.11 17.08 27.36 17.19Q26.60 17.30 25.79 17.30L25.79 17.30Q24.72 17.30 24.20 17.01Q23.67 16.72 23.47 15.95Q23.27 15.19 23.27 13.68L23.27 13.68Q23.27 12.24 23.51 11.47Q23.76 10.70 24.35 10.37Q24.95 10.05 26.07 10.05L26.07 10.05Q27.17 10.05 27.74 10.23Q28.31 10.40 28.54 10.83Q28.77 11.26 28.77 12.10L28.77 12.10Q28.77 13.16 28.50 13.59Q28.22 14.03 27.37 14.17Q26.52 14.31 24.43 14.31L24.43 14.31L24.43 16.21Q25.03 16.38 26.03 16.38L26.03 16.38ZM25.63 11.02Q24.93 11.02 24.68 11.20Q24.43 11.38 24.43 11.89L24.43 11.89L24.43 13.50L26.54 13.50Q27.26 13.50 27.51 13.31Q27.76 13.13 27.76 12.64L27.76 12.64L27.76 11.02L25.63 11.02ZM36.26 17.02Q35.76 17.22 35.21 17.30Q34.66 17.39 33.92 17.39L33.92 17.39Q32.62 17.39 31.98 17.00Q31.33 16.60 31.09 15.65Q30.84 14.70 30.84 12.81L30.84 12.81Q30.84 10.91 31.09 9.95Q31.35 8.99 32.02 8.60Q32.69 8.22 34.03 8.22L34.03 8.22Q34.48 8.22 35.07 8.29Q35.66 8.37 36.04 8.50L36.04 8.50L35.90 9.44Q35.38 9.32 34.71 9.25Q34.03 9.18 33.63 9.18L33.63 9.18Q33.03 9.18 32.70 9.26Q32.37 9.34 32.20 9.57Q32.03 9.80 32.03 10.26L32.03 10.26L32.03 16.24Q32.76 16.46 33.81 16.46L33.81 16.46Q34.87 16.46 36.13 16.11L36.13 16.11L36.26 17.02ZM40.45 10.05Q41.38 10.05 41.91 10.23Q42.43 10.40 42.67 10.81Q42.90 11.21 42.90 11.91L42.90 11.91L42.90 17.18L42.41 17.18L42.08 16.48Q41.59 16.91 40.98 17.11Q40.36 17.30 39.56 17.30L39.56 17.30Q38.43 17.30 37.95 16.84Q37.48 16.37 37.48 15.26L37.48 15.26Q37.48 14.20 37.74 13.76Q38.01 13.33 38.82 13.19Q39.63 13.05 41.61 13.05L41.61 13.05L41.78 13.05L41.78 11.14Q41.22 10.98 40.22 10.98L40.22 10.98Q39.14 10.98 37.94 11.30L37.94 11.30L37.79 10.46Q38.23 10.28 38.99 10.16Q39.75 10.05 40.45 10.05L40.45 10.05ZM40.63 16.39Q41.30 16.39 41.54 16.21Q41.78 16.03 41.78 15.53L41.78 15.53L41.78 13.86L39.66 13.86Q38.98 13.86 38.73 14.04Q38.49 14.22 38.49 14.71L38.49 14.71L38.49 16.39L40.63 16.39ZM52.86 10.05Q54.82 10.05 54.82 11.16L54.82 11.16L54.82 17.18L53.70 17.18L53.70 10.96L52.07 10.96Q51.38 10.96 51.10 11.10Q50.82 11.24 50.76 11.62L50.76 11.62L50.76 17.18L49.64 17.18L49.64 10.96L48.01 10.96Q47.24 10.96 46.96 11.15Q46.69 11.34 46.69 11.86L46.69 11.86L46.69 17.18L45.57 17.18L45.57 10.18L46.06 10.18L46.38 10.88Q46.87 10.44 47.45 10.25Q48.02 10.05 48.80 10.05L48.80 10.05Q50.30 10.05 50.65 10.70L50.65 10.70Q51.09 10.36 51.63 10.21Q52.16 10.05 52.86 10.05L52.86 10.05ZM60.68 10.05Q61.73 10.05 62.23 10.33Q62.73 10.61 62.92 11.36Q63.10 12.11 63.10 13.68L63.10 13.68Q63.10 15.26 62.91 16.03Q62.72 16.80 62.22 17.09Q61.71 17.39 60.68 17.39L60.68 17.39Q59.89 17.39 59.40 17.31Q58.91 17.23 58.62 17.02L58.62 17.02L58.62 19.53L57.50 19.68L57.50 10.18L57.99 10.18L58.27 10.75Q58.53 10.35 59.09 10.20Q59.64 10.05 60.68 10.05L60.68 10.05ZM61.94 16.09L61.94 11.00L59.28 11.00Q58.90 11.00 58.76 11.06Q58.62 11.12 58.62 11.27L58.62 11.27L58.62 16.44L61.26 16.44Q61.67 16.44 61.80 16.37Q61.94 16.30 61.94 16.09L61.94 16.09Z"></path></g><!----><g data-v-423bf9ae="" id="e75cd11f-e7b6-44ba-8306-3f9287c091b2" transform="matrix(2.8125,0,0,2.8125,0,0)" stroke="none" fill="white"><path d="M29.625 1l-3.099 3.172H4.054v23.657h22.472L29.625 31H1V1h28.625M32 0H0v32h32l-5.054-5.172H5.054V5.172h21.893L32 0z"></path><path d="M21.038 10.962v10.076H10.962V10.962h10.076m1-1H9.962v12.076h12.076V9.962z"></path></g><!----><g data-v-423bf9ae="" id="2c4dd617-db04-4b94-804b-d11fbe603e80" fill="white" transform="matrix(0.6563857671932771,0,0,0.6563857671932771,109.44863416423985,56.27172941241078)"><path d="M0.84 6.97L0.84 5.88L7.73 5.88L7.73 6.97L4.87 6.97L4.87 15.68L3.70 15.68L3.70 6.97L0.84 6.97ZM16.59 15.68L16.59 5.88L17.77 5.88L17.77 10.22L21.94 10.22L21.94 5.88L23.11 5.88L23.11 15.68L21.94 15.68L21.94 11.31L17.77 11.31L17.77 15.68L16.59 15.68ZM32.31 6.97L32.31 5.88L38.53 5.88L38.53 6.97L36.01 6.97L36.01 14.59L38.53 14.59L38.53 15.68L32.31 15.68L32.31 14.59L34.83 14.59L34.83 6.97L32.31 6.97ZM50.08 5.88L52.91 15.18L53.07 15.18L53.07 5.88L54.25 5.88L54.25 15.68L51.90 15.68L49.07 6.38L48.90 6.38L48.90 15.68L47.73 15.68L47.73 5.88L50.08 5.88ZM64.69 11.31L64.69 15.68L63.52 15.68L63.52 5.88L64.69 5.88L64.69 10.22L65.02 10.22L68.78 5.88L70.24 5.88L70.24 5.96L66.18 10.70L66.18 10.86L70.41 15.60L70.41 15.68L68.92 15.68L65.02 11.31L64.69 11.31ZM97.75 14.78L97.75 14.78Q98.35 14.78 98.78 14.58Q99.20 14.38 99.48 14.04Q99.75 13.69 99.88 13.25Q100.02 12.81 100.02 12.32L100.02 12.32L100.02 12.15L101.19 12.15L101.19 12.32Q101.19 13.06 100.97 13.71Q100.74 14.36 100.31 14.85Q99.88 15.33 99.23 15.60Q98.59 15.88 97.75 15.88L97.75 15.88Q96.12 15.88 95.21 14.85Q94.30 13.83 94.30 11.87L94.30 11.87L94.30 9.69Q94.30 7.78 95.21 6.73Q96.12 5.68 97.75 5.68L97.75 5.68Q98.59 5.68 99.23 5.96Q99.88 6.23 100.31 6.71Q100.74 7.20 100.97 7.85Q101.19 8.50 101.19 9.24L101.19 9.24L101.19 9.41L100.02 9.41L100.02 9.24Q100.00 8.76 99.87 8.32Q99.74 7.87 99.46 7.53Q99.19 7.18 98.77 6.98Q98.35 6.78 97.75 6.78L97.75 6.78Q96.61 6.78 96.05 7.60Q95.48 8.43 95.48 9.77L95.48 9.77L95.48 11.79Q95.48 13.23 96.05 14.01Q96.61 14.78 97.75 14.78ZM109.82 11.87L109.82 9.69Q109.82 7.78 110.73 6.73Q111.64 5.68 113.26 5.68L113.26 5.68Q114.88 5.68 115.79 6.73Q116.70 7.78 116.70 9.69L116.70 9.69L116.70 11.87Q116.70 13.83 115.79 14.85Q114.88 15.88 113.26 15.88L113.26 15.88Q111.64 15.88 110.73 14.85Q109.82 13.83 109.82 11.87L109.82 11.87ZM113.26 14.78L113.26 14.78Q114.39 14.78 114.96 14.01Q115.53 13.23 115.53 11.79L115.53 11.79L115.53 9.77Q115.53 8.43 114.96 7.60Q114.39 6.78 113.26 6.78L113.26 6.78Q112.13 6.78 111.56 7.60Q110.99 8.43 110.99 9.77L110.99 9.77L110.99 11.79Q110.99 13.23 111.56 14.01Q112.13 14.78 113.26 14.78ZM125.57 6.97L125.57 5.88L128.79 5.88Q130.61 5.88 131.45 6.75Q132.29 7.62 132.29 9.52L132.29 9.52L132.29 12.04Q132.29 13.94 131.45 14.81Q130.61 15.68 128.79 15.68L128.79 15.68L125.57 15.68L125.57 14.57L126.41 14.57L126.41 6.97L125.57 6.97ZM127.58 14.59L128.62 14.59Q129.26 14.59 129.73 14.46Q130.20 14.34 130.51 14.04Q130.82 13.73 130.96 13.23Q131.11 12.73 131.11 11.96L131.11 11.96L131.11 9.60Q131.11 8.83 130.96 8.33Q130.82 7.83 130.51 7.53Q130.20 7.22 129.73 7.10Q129.26 6.97 128.62 6.97L128.62 6.97L127.58 6.97L127.58 14.59ZM141.43 15.68L141.43 5.88L147.36 5.88L147.36 6.97L142.60 6.97L142.60 10.22L147.28 10.22L147.28 11.31L142.60 11.31L142.60 14.59L147.45 14.59L147.45 15.68L141.43 15.68ZM158.98 14.90L158.98 14.90Q158.98 14.49 159.27 14.20Q159.56 13.92 159.96 13.92L159.96 13.92Q160.37 13.92 160.66 14.20Q160.94 14.49 160.94 14.90L160.94 14.90L160.94 16.27Q160.94 16.74 160.64 17.05Q160.34 17.36 159.87 17.36L159.87 17.36L159.15 17.36L159.15 16.60L159.81 16.60Q160.19 16.60 160.19 16.18L160.19 16.18L160.19 15.83Q160.08 15.88 159.95 15.88L159.95 15.88Q159.56 15.88 159.27 15.59Q158.98 15.30 158.98 14.90ZM187.66 6.97L187.66 5.88L194.54 5.88L194.54 6.97L191.69 6.97L191.69 15.68L190.51 15.68L190.51 6.97L187.66 6.97ZM203.41 15.68L203.41 5.88L204.58 5.88L204.58 10.22L208.75 10.22L208.75 5.88L209.93 5.88L209.93 15.68L208.75 15.68L208.75 11.31L204.58 11.31L204.58 15.68L203.41 15.68ZM219.13 6.97L219.13 5.88L225.34 5.88L225.34 6.97L222.82 6.97L222.82 14.59L225.34 14.59L225.34 15.68L219.13 15.68L219.13 14.59L221.65 14.59L221.65 6.97L219.13 6.97ZM236.89 5.88L239.72 15.18L239.89 15.18L239.89 5.88L241.07 5.88L241.07 15.68L238.71 15.68L235.89 6.38L235.72 6.38L235.72 15.68L234.54 15.68L234.54 5.88L236.89 5.88ZM251.51 11.31L251.51 15.68L250.33 15.68L250.33 5.88L251.51 5.88L251.51 10.22L251.83 10.22L255.60 5.88L257.05 5.88L257.05 5.96L252.99 10.70L252.99 10.86L257.22 15.60L257.22 15.68L255.74 15.68L251.83 11.31L251.51 11.31ZM281.55 15.68L281.55 5.88L287.57 5.88L287.57 6.97L282.73 6.97L282.73 10.22L287.49 10.22L287.49 11.31L282.73 11.31L282.73 15.68L281.55 15.68ZM296.72 5.88L297.89 5.88L297.89 12.38Q297.89 13.57 298.45 14.17Q299.00 14.78 300.08 14.78L300.08 14.78Q301.15 14.78 301.71 14.17Q302.26 13.57 302.26 12.38L302.26 12.38L302.26 5.88L303.44 5.88L303.44 12.38Q303.44 14.08 302.54 14.98Q301.64 15.88 300.08 15.88L300.08 15.88Q298.51 15.88 297.61 14.98Q296.72 14.08 296.72 12.38L296.72 12.38L296.72 5.88ZM312.20 6.97L312.20 5.88L319.09 5.88L319.09 6.97L316.23 6.97L316.23 15.68L315.06 15.68L315.06 6.97L312.20 6.97ZM327.85 5.88L329.03 5.88L329.03 12.38Q329.03 13.57 329.58 14.17Q330.13 14.78 331.21 14.78L331.21 14.78Q332.29 14.78 332.84 14.17Q333.40 13.57 333.40 12.38L333.40 12.38L333.40 5.88L334.57 5.88L334.57 12.38Q334.57 14.08 333.68 14.98Q332.78 15.88 331.21 15.88L331.21 15.88Q329.64 15.88 328.75 14.98Q327.85 14.08 327.85 12.38L327.85 12.38L327.85 5.88ZM349.85 12.15L349.85 15.68L348.67 15.68L348.67 12.40Q348.67 12.04 348.50 11.84Q348.33 11.65 347.91 11.65L347.91 11.65L344.86 11.65L344.86 15.68L343.69 15.68L343.69 5.88L347.19 5.88Q347.94 5.88 348.50 6.10Q349.06 6.31 349.43 6.68Q349.80 7.04 349.99 7.53Q350.18 8.01 350.18 8.54L350.18 8.54L350.18 8.96Q350.18 9.51 349.88 10.05Q349.58 10.60 348.95 10.89L348.95 10.89L348.95 11.06Q349.37 11.13 349.61 11.40Q349.85 11.66 349.85 12.15L349.85 12.15ZM344.86 6.97L344.86 10.56L347.05 10.56Q348.04 10.56 348.52 10.13Q349.01 9.70 349.01 8.88L349.01 8.88L349.01 8.62Q349.01 7.88 348.52 7.43Q348.04 6.97 347.05 6.97L347.05 6.97L344.86 6.97ZM359.38 15.68L359.38 5.88L365.32 5.88L365.32 6.97L360.56 6.97L360.56 10.22L365.23 10.22L365.23 11.31L360.56 11.31L360.56 14.59L365.40 14.59L365.40 15.68L359.38 15.68ZM376.94 14.90L376.94 14.90Q376.94 14.49 377.22 14.20Q377.51 13.92 377.92 13.92L377.92 13.92Q378.32 13.92 378.61 14.20Q378.90 14.49 378.90 14.90L378.90 14.90Q378.90 15.30 378.61 15.59Q378.32 15.88 377.92 15.88L377.92 15.88Q377.51 15.88 377.22 15.59Q376.94 15.30 376.94 14.90Z"></path></g></svg>