<svg data-v-423bf9ae="" xmlns="http://www.w3.org/2000/svg" viewBox="0 0 310.1915019282326 60" class="font"><!----><!----><!----><g data-v-423bf9ae="" id="aa88060a-b7d2-424b-bb3f-01d13bbc0f55" fill="black" transform="matrix(4.995836707455764,0,0,4.995836707455764,-5.045797328053993,-38.31806697366349)"><path d="M6.43 17.02Q5.92 17.22 5.38 17.30Q4.83 17.39 4.09 17.39L4.09 17.39Q2.79 17.39 2.14 17.00Q1.50 16.60 1.25 15.65Q1.01 14.70 1.01 12.81L1.01 12.81Q1.01 10.91 1.26 9.95Q1.51 8.99 2.18 8.60Q2.86 8.22 4.20 8.22L4.20 8.22Q4.65 8.22 5.24 8.29Q5.82 8.37 6.20 8.50L6.20 8.50L6.06 9.44Q5.54 9.32 4.87 9.25Q4.20 9.18 3.79 9.18L3.79 9.18Q3.19 9.18 2.86 9.26Q2.53 9.34 2.37 9.57Q2.20 9.80 2.20 10.26L2.20 10.26L2.20 16.24Q2.93 16.46 3.98 16.46L3.98 16.46Q5.04 16.46 6.30 16.11L6.30 16.11L6.43 17.02ZM10.61 17.30Q9.37 17.30 8.76 17.02Q8.16 16.73 7.94 15.98Q7.71 15.23 7.71 13.68L7.71 13.68Q7.71 12.12 7.94 11.38Q8.16 10.63 8.76 10.34Q9.37 10.05 10.61 10.05L10.61 10.05Q11.87 10.05 12.47 10.33Q13.08 10.61 13.30 11.36Q13.52 12.11 13.52 13.68L13.52 13.68Q13.52 15.23 13.30 15.98Q13.08 16.73 12.47 17.02Q11.86 17.30 10.61 17.30L10.61 17.30ZM8.86 16.35L11.68 16.35Q12.10 16.35 12.24 16.28Q12.38 16.21 12.38 16.00L12.38 16.00L12.38 11.00L9.56 11.00Q9.14 11.00 9.00 11.07Q8.86 11.14 8.86 11.35L8.86 11.35L8.86 16.35ZM19.85 7.83L20.97 7.67L20.97 17.18L20.48 17.18L20.22 16.63Q19.95 17.07 19.43 17.23Q18.91 17.39 17.96 17.39L17.96 17.39Q16.83 17.39 16.30 17.12Q15.76 16.84 15.57 16.08Q15.37 15.32 15.37 13.68L15.37 13.68Q15.37 12.14 15.56 11.39Q15.75 10.64 16.24 10.35Q16.73 10.05 17.74 10.05L17.74 10.05Q18.54 10.05 19.04 10.14Q19.54 10.22 19.85 10.42L19.85 10.42L19.85 7.83ZM19.85 16.09L19.85 11.00L17.19 11.00Q16.80 11.00 16.67 11.07Q16.53 11.14 16.53 11.35L16.53 11.35L16.53 16.44L19.18 16.44Q19.59 16.44 19.72 16.37Q19.85 16.30 19.85 16.09L19.85 16.09ZM26.03 16.38Q26.60 16.38 27.13 16.31Q27.66 16.24 28.43 16.06L28.43 16.06L28.59 16.90Q28.11 17.08 27.36 17.19Q26.60 17.30 25.79 17.30L25.79 17.30Q24.72 17.30 24.20 17.01Q23.67 16.72 23.47 15.95Q23.27 15.19 23.27 13.68L23.27 13.68Q23.27 12.24 23.51 11.47Q23.76 10.70 24.35 10.37Q24.95 10.05 26.07 10.05L26.07 10.05Q27.17 10.05 27.74 10.23Q28.31 10.40 28.54 10.83Q28.77 11.26 28.77 12.10L28.77 12.10Q28.77 13.16 28.50 13.59Q28.22 14.03 27.37 14.17Q26.52 14.31 24.43 14.31L24.43 14.31L24.43 16.21Q25.03 16.38 26.03 16.38L26.03 16.38ZM25.63 11.02Q24.93 11.02 24.68 11.20Q24.43 11.38 24.43 11.89L24.43 11.89L24.43 13.50L26.54 13.50Q27.26 13.50 27.51 13.31Q27.76 13.13 27.76 12.64L27.76 12.64L27.76 11.02L25.63 11.02ZM36.26 17.02Q35.76 17.22 35.21 17.30Q34.66 17.39 33.92 17.39L33.92 17.39Q32.62 17.39 31.98 17.00Q31.33 16.60 31.09 15.65Q30.84 14.70 30.84 12.81L30.84 12.81Q30.84 10.91 31.09 9.95Q31.35 8.99 32.02 8.60Q32.69 8.22 34.03 8.22L34.03 8.22Q34.48 8.22 35.07 8.29Q35.66 8.37 36.04 8.50L36.04 8.50L35.90 9.44Q35.38 9.32 34.71 9.25Q34.03 9.18 33.63 9.18L33.63 9.18Q33.03 9.18 32.70 9.26Q32.37 9.34 32.20 9.57Q32.03 9.80 32.03 10.26L32.03 10.26L32.03 16.24Q32.76 16.46 33.81 16.46L33.81 16.46Q34.87 16.46 36.13 16.11L36.13 16.11L36.26 17.02ZM40.45 10.05Q41.38 10.05 41.91 10.23Q42.43 10.40 42.67 10.81Q42.90 11.21 42.90 11.91L42.90 11.91L42.90 17.18L42.41 17.18L42.08 16.48Q41.59 16.91 40.98 17.11Q40.36 17.30 39.56 17.30L39.56 17.30Q38.43 17.30 37.95 16.84Q37.48 16.37 37.48 15.26L37.48 15.26Q37.48 14.20 37.74 13.76Q38.01 13.33 38.82 13.19Q39.63 13.05 41.61 13.05L41.61 13.05L41.78 13.05L41.78 11.14Q41.22 10.98 40.22 10.98L40.22 10.98Q39.14 10.98 37.94 11.30L37.94 11.30L37.79 10.46Q38.23 10.28 38.99 10.16Q39.75 10.05 40.45 10.05L40.45 10.05ZM40.63 16.39Q41.30 16.39 41.54 16.21Q41.78 16.03 41.78 15.53L41.78 15.53L41.78 13.86L39.66 13.86Q38.98 13.86 38.73 14.04Q38.49 14.22 38.49 14.71L38.49 14.71L38.49 16.39L40.63 16.39ZM52.86 10.05Q54.82 10.05 54.82 11.16L54.82 11.16L54.82 17.18L53.70 17.18L53.70 10.96L52.07 10.96Q51.38 10.96 51.10 11.10Q50.82 11.24 50.76 11.62L50.76 11.62L50.76 17.18L49.64 17.18L49.64 10.96L48.01 10.96Q47.24 10.96 46.96 11.15Q46.69 11.34 46.69 11.86L46.69 11.86L46.69 17.18L45.57 17.18L45.57 10.18L46.06 10.18L46.38 10.88Q46.87 10.44 47.45 10.25Q48.02 10.05 48.80 10.05L48.80 10.05Q50.30 10.05 50.65 10.70L50.65 10.70Q51.09 10.36 51.63 10.21Q52.16 10.05 52.86 10.05L52.86 10.05ZM60.68 10.05Q61.73 10.05 62.23 10.33Q62.73 10.61 62.92 11.36Q63.10 12.11 63.10 13.68L63.10 13.68Q63.10 15.26 62.91 16.03Q62.72 16.80 62.22 17.09Q61.71 17.39 60.68 17.39L60.68 17.39Q59.89 17.39 59.40 17.31Q58.91 17.23 58.62 17.02L58.62 17.02L58.62 19.53L57.50 19.68L57.50 10.18L57.99 10.18L58.27 10.75Q58.53 10.35 59.09 10.20Q59.64 10.05 60.68 10.05L60.68 10.05ZM61.94 16.09L61.94 11.00L59.28 11.00Q58.90 11.00 58.76 11.06Q58.62 11.12 58.62 11.27L58.62 11.27L58.62 16.44L61.26 16.44Q61.67 16.44 61.80 16.37Q61.94 16.30 61.94 16.09L61.94 16.09Z"></path></g><!----><!----></svg>